#!OML:ASF H:\Pregnant\Project 1\Capture day 1\Session 1\femalepreg.ASF
:FULLY-SPECIFIED
:DEGREES
984
root 5.80174 15.465 19.5581 -520.135 -52.5295 180.986
lowerback -13.8647 -1.3572 2.87396
upperback -4.27923 -2.74788 3.91469
thorax 3.32271 -1.52214 2.01543
lowerneck -15.6737 -4.05959 -3.14986
upperneck 34.589 -10.7054 8.13974
head 15.4525 -4.62063 1.85235
rclavicle -8.50798e-014 -7.95139e-016
rhumerus -37.7117 -14.5599 -60.9866
rradius 28.8721
rwrist -5.20365
rhand -18.4112 -21.296
rfingers 7.12502
rthumb 7.87351 -51.1294
lclavicle -8.50798e-014 -7.95139e-016
lhumerus -43.0169 -5.38578 85.223
lradius 30.335
lwrist 39.7079
lhand -19.9462 0.216543
lfingers 7.12502
lthumb 6.39176 30.1001
rfemur -39.5421 21.6064 19.8606
rtibia 38.9869
rfoot -18.6086 -5.27053
rtoes -0.537473
lfemur -47.6404 -16.7558 -14.5202
ltibia 42.9708
lfoot -13.9448 3.77669
ltoes -37.1153
985
root 5.76678 15.4643 19.5484 -519.907 -51.5587 180.853
lowerback -13.8503 -1.37764 2.70958
upperback -4.27225 -2.74949 3.86667
thorax 3.32734 -1.5229 2.05742
lowerneck -15.7834 -3.91971 -3.04926
upperneck 34.6166 -10.522 8.09989
head 15.4664 -4.53552 1.84862
rclavicle 2.95195e-014 1.11319e-014
rhumerus -37.6782 -14.5359 -60.9698
rradius 28.937
rwrist -5.2508
rhand -18.2778 -21.2507
rfingers 7.12502
rthumb 8.00226 -51.0792
lclavicle 2.95195e-014 1.11319e-014
lhumerus -43.0691 -5.60437 85.2864
lradius 30.3912
lwrist 39.7878
lhand -20.0181 0.143593
lfingers 7.12502
lthumb 6.32236 30.0292
rfemur -39.7479 21.9394 19.5581
rtibia 39.1057
rfoot -18.7921 -4.75077
rtoes -0.582337
lfemur -47.768 -18.032 -13.7691
ltibia 41.7337
lfoot -14.1041 3.73128
ltoes -37.4708
986
root 5.73145 15.4631 19.5382 -519.722 -50.593 180.755
lowerback -13.8187 -1.39212 2.56438
upperback -4.26782 -2.74368 3.80321
thorax 3.31818 -1.51988 2.07424
lowerneck -15.8704 -3.78279 -2.93847
upperneck 34.6355 -10.3551 8.07849
head 15.4735 -4.45542 1.84815
rclavicle -5.63555e-014 -1.59028e-014
rhumerus -37.6687 -14.5411 -60.9732
rradius 29.0104
rwrist -5.30729
rhand -18.156 -21.2158
rfingers 7.12502
rthumb 8.11973 -51.0398
lclavicle -5.63555e-014 -1.59028e-014
lhumerus -43.1251 -5.84652 85.322
lradius 30.4504
lwrist 39.8943
lhand -20.2013 0.080612
lfingers 7.12502
lthumb 6.14547 29.9715
rfemur -39.9278 22.273 19.2794
rtibia 39.2077
rfoot -18.9751 -4.23054
rtoes -0.667436
lfemur -47.9145 -19.2796 -12.996
ltibia 40.5281
lfoot -14.2355 3.67012
ltoes -37.7783
987
root 5.69592 15.4616 19.5275 -519.577 -49.6335 180.692
lowerback -13.7731 -1.40213 2.43249
upperback -4.26712 -2.73247 3.73041
thorax 3.2963 -1.5142 2.07515
lowerneck -15.9294 -3.65048 -2.82599
upperneck 34.6437 -10.2044 8.07567
head 15.4721 -4.38141 1.85264
rclavicle 5.76476e-014 -2.78299e-014
rhumerus -37.6795 -14.568 -60.9916
rradius 29.0944
rwrist -5.37971
rhand -18.0441 -21.2028
rfingers 7.12502
rthumb 8.2278 -51.0226
lclavicle 5.76476e-014 -2.78299e-014
lhumerus -43.1811 -6.09982 85.3338
lradius 30.506
lwrist 40.021
lhand -20.482 0.030881
lfingers 7.12502
lthumb 5.87444 29.9294
rfemur -40.0847 22.601 19.0263
rtibia 39.2912
rfoot -19.1566 -3.70263
rtoes -0.754113
lfemur -48.0827 -20.4765 -12.2109
ltibia 39.3643
lfoot -14.3612 3.5435
ltoes -38.0136
988
root 5.6604 15.4601 19.5163 -519.464 -48.68 180.662
lowerback -13.7184 -1.411 2.30628
upperback -4.26942 -2.72024 3.65644
thorax 3.26603 -1.50812 2.07218
lowerneck -15.9624 -3.52298 -2.71795
upperneck 34.6417 -10.0652 8.08609
head 15.4622 -4.31283 1.86168
rclavicle 3.15074e-014 -3.65764e-014
rhumerus -37.7008 -14.606 -61.021
rradius 29.191
rwrist -5.47322
rhand -17.9366 -21.222
rfingers 7.12502
rthumb 8.33152 -51.0377
lclavicle 3.15074e-014 -3.65764e-014
lhumerus -43.2309 -6.34575 85.3257
lradius 30.5527
lwrist 40.1618
lhand -20.8432 -0.00397437
lfingers 7.12502
lthumb 5.52574 29.904
rfemur -40.2211 22.9179 18.8002
rtibia 39.3529
rfoot -19.3353 -3.1593
rtoes -0.80308
lfemur -48.2707 -21.5965 -11.4273
ltibia 38.2481
lfoot -14.5032 3.30378
ltoes -38.17
989
root 5.625 15.459 19.5048 -519.379 -47.7311 180.664
lowerback -13.6625 -1.42401 2.17403
upperback -4.26987 -2.71363 3.59346
thorax 3.23793 -1.50488 2.08323
lowerneck -15.983 -3.3985 -2.62072
upperneck 34.6331 -9.92717 8.09849
head 15.4471 -4.24648 1.87339
rclavicle -2.70347e-014 -4.37326e-014
rhumerus -37.711 -14.6405 -61.0573
rradius 29.2976
rwrist -5.59186
rhand -17.8301 -21.2784
rfingers 7.12502
rthumb 8.43427 -51.09
lclavicle -2.70347e-014 -4.37326e-014
lhumerus -43.2646 -6.5599 85.3047
lradius 30.5884
lwrist 40.3097
lhand -21.2484 -0.0394853
lfingers 7.12502
lthumb 5.13454 29.8783
rfemur -40.3369 23.2202 18.6022
rtibia 39.3884
rfoot -19.5094 -2.59513
rtoes -0.78364
lfemur -48.4706 -22.6159 -10.6598
ltibia 37.1815
lfoot -14.6741 2.91626
ltoes -38.2576
990
root 5.58978 15.4584 19.4928 -519.32 -46.7845 180.698
lowerback -13.6091 -1.442 2.03306
upperback -4.26671 -2.71377 3.54412
thorax 3.21615 -1.505 2.1123
lowerneck -16.0028 -3.27575 -2.5331
upperneck 34.6243 -9.78666 8.10657
head 15.4318 -4.18087 1.8854
rclavicle -4.02539e-014 -4.77083e-015
rhumerus -37.7035 -14.6693 -61.0997
rradius 29.4128
rwrist -5.73576
rhand -17.7229 -21.3656
rfingers 7.12502
rthumb 8.53779 -51.173
lclavicle -4.02539e-014 -4.77083e-015
lhumerus -43.2791 -6.73588 85.2717
lradius 30.6136
lwrist 40.4612
lhand -21.674 -0.0825015
lfingers 7.12502
lthumb 4.72352 29.8448
rfemur -40.4316 23.5086 18.4322
rtibia 39.3928
rfoot -19.6757 -2.01436
rtoes -0.703264
lfemur -48.6706 -23.5157 -9.9237
ltibia 36.1629
lfoot -14.8694 2.36907
ltoes -38.3046
991
root 5.55474 15.4586 19.4803 -519.283 -45.8374 180.761
lowerback -13.56 -1.4636 1.88495
upperback -4.2598 -2.71891 3.50567
thorax 3.20165 -1.50761 2.15583
lowerneck -16.0319 -3.15333 -2.44984
upperneck 34.6225 -9.64359 8.10751
head 15.4218 -4.11516 1.89545
rclavicle -4.87022e-014 -4.21423e-014
rhumerus -37.6796 -14.6956 -61.1509
rradius 29.535
rwrist -5.90078
rhand -17.6164 -21.467
rfingers 7.12502
rthumb 8.64054 -51.2702
lclavicle -4.87022e-014 -4.21423e-014
lhumerus -43.2741 -6.87694 85.2238
lradius 30.6299
lwrist 40.6138
lhand -22.1034 -0.137406
lfingers 7.12502
lthumb 4.30892 29.7988
rfemur -40.5053 23.787 18.2885
rtibia 39.3626
rfoot -19.8318 -1.42686
rtoes -0.587116
lfemur -48.8573 -24.2833 -9.23355
ltibia 35.1895
lfoot -15.0677 1.67204
ltoes -38.3436
992
root 5.51982 15.4596 19.4673 -519.264 -44.8868 180.852
lowerback -13.5149 -1.48442 1.73636
upperback -4.252 -2.72355 3.46955
thorax 3.19032 -1.51001 2.20206
lowerneck -16.0742 -3.0307 -2.3616
upperneck 34.6341 -9.50301 8.1028
head 15.421 -4.05014 1.90156
rclavicle 4.54223e-014 2.06736e-014
rhumerus -37.6521 -14.7273 -61.2159
rradius 29.6627
rwrist -6.07861
rhand -17.5165 -21.5598
rfingers 7.12502
rthumb 8.7369 -51.359
lclavicle 4.54223e-014 2.06736e-014
lhumerus -43.2546 -6.99877 85.1556
lradius 30.6401
lwrist 40.7683
lhand -22.5272 -0.203808
lfingers 7.12502
lthumb 3.89963 29.7403
rfemur -40.5594 24.0595 18.1686
rtibia 39.2968
rfoot -19.9767 -0.844781
rtoes -0.467967
lfemur -49.0173 -24.911 -8.60281
ltibia 34.26
lfoot -15.2296 0.853372
ltoes -38.4097
993
root 5.4849 15.4612 19.4535 -519.258 -43.9303 180.967
lowerback -13.4746 -1.50001 1.59285
upperback -4.24614 -2.72211 3.42746
thorax 3.17887 -1.50944 2.24007
lowerneck -16.129 -2.90809 -2.26145
upperneck 34.6624 -9.37111 8.09665
head 15.4317 -3.9873 1.90316
rclavicle 8.89561e-014 -4.69132e-014
rhumerus -37.6339 -14.7714 -61.2985
rradius 29.7945
rwrist -6.25932
rhand -17.4261 -21.6222
rfingers 7.12502
rthumb 8.82415 -51.4177
lclavicle 8.89561e-014 -4.69132e-014
lhumerus -43.2245 -7.11595 85.0617
lradius 30.6446
lwrist 40.9238
lhand -22.9435 -0.277017
lfingers 7.12502
lthumb 3.49762 29.674
rfemur -40.5967 24.3292 18.0696
rtibia 39.1968
rfoot -20.112 -0.279052
rtoes -0.379769
lfemur -49.139 -25.3952 -8.04323
ltibia 33.3773
lfoot -15.3025 -0.0499865
ltoes -38.5218
994
root 5.44984 15.4633 19.439 -519.263 -42.9663 181.104
lowerback -13.4411 -1.50871 1.4554
upperback -4.24467 -2.71247 3.37596
thorax 3.16549 -1.50494 2.26603
lowerneck -16.1921 -2.78525 -2.14632
upperneck 34.7073 -9.25004 8.09099
head 15.4529 -3.92726 1.9002
rclavicle 2.48481e-014 -3.18055e-015
rhumerus -37.6301 -14.8272 -61.3997
rradius 29.9264
rwrist -6.43135
rhand -17.344 -21.6398
rfingers 7.12502
rthumb 8.90337 -51.4319
lclavicle 2.48481e-014 -3.18055e-015
lhumerus -43.1864 -7.23273 84.94
lradius 30.6426
lwrist 41.0795
lhand -23.3495 -0.355509
lfingers 7.12502
lthumb 3.10557 29.6016
rfemur -40.6215 24.5968 17.9879
rtibia 39.0667
rfoot -20.2416 0.264012
rtoes -0.348391
lfemur -49.2129 -25.7319 -7.567
ltibia 32.5495
lfoot -15.2301 -1.00685
ltoes -38.6628
